<?xml version="1.0" encoding="iso-8859-1"?>
<!-- Generator: Adobe Illustrator 19.0.0, SVG Export Plug-In . SVG Version: 6.00 Build 0)  -->
<svg version="1.1" id="Capa_1" xmlns="http://www.w3.org/2000/svg" xmlns:xlink="http://www.w3.org/1999/xlink" x="0px" y="0px"
	 viewBox="0 0 512 512" style="enable-background:new 0 0 512 512;" xml:space="preserve">
<g>
	<g>
		<rect x="180" y="332" width="30" height="60"/>
	</g>
</g>
<g>
	<g>
		<path d="M205.62,216.409C196.676,207.419,180,213.182,180,227v15h15c8.34,0,15-6.728,15-15
			C210,222.986,208.447,219.222,205.62,216.409z"/>
	</g>
</g>
<g>
	<g>
		<path d="M135,212c-8.34,0-15,6.728-15,15c0,8.34,6.728,15,15,15h15v-15C150,218.66,143.272,212,135,212z"/>
	</g>
</g>
<g>
	<g>
		<path d="M467,0H45C20.186,0,0,20.186,0,45v75h512V45C512,20.186,491.814,0,467,0z M75,90c-8.284,0-15-6.716-15-15
			c0-8.286,6.716-15,15-15s15,6.714,15,15C90,83.284,83.284,90,75,90z M135,90c-8.284,0-15-6.716-15-15c0-8.286,6.716-15,15-15
			s15,6.714,15,15C150,83.284,143.284,90,135,90z M195,90c-8.284,0-15-6.716-15-15c0-8.286,6.716-15,15-15s15,6.714,15,15
			C210,83.284,203.284,90,195,90z"/>
	</g>
</g>
<g>
	<g>
		<rect x="120" y="332" width="30" height="60"/>
	</g>
</g>
<g>
	<g>
		<path d="M90,272v30c21.911,0,38.727,0,60,0v-30H90z"/>
	</g>
</g>
<g>
	<g>
		<path d="M180,272v30c21.273,0,38.089,0,60,0v-30H180z"/>
	</g>
</g>
<g>
	<g>
		<path d="M0,150v317c0,24.814,20.186,45,45,45h422c24.814,0,45-20.186,45-45V150H0z M270,317c0,8.291-6.709,15-15,15h-15v75
			c0,8.291-6.709,15-15,15H105c-8.291,0-15-6.709-15-15v-75H75c-8.291,0-15-6.709-15-15v-60c0-8.291,6.709-15,15-15h17.723
			C91.036,237.234,90,232.215,90,227c0-12.041,4.688-23.35,13.198-31.831c16.377-16.434,44.608-16.626,61.794-1.166
			c17.126-15.441,45.394-15.306,61.838,1.196C235.313,203.65,240,214.959,240,227c0,5.213-1.04,10.232-2.726,15H255
			c8.291,0,15,6.709,15,15V317z M437,422H315c-8.291,0-15-6.709-15-15c0-8.291,6.709-15,15-15h122c8.291,0,15,6.709,15,15
			C452,415.291,445.291,422,437,422z M437,362H315c-8.291,0-15-6.709-15-15c0-8.291,6.709-15,15-15h122c8.291,0,15,6.709,15,15
			C452,355.291,445.291,362,437,362z M437,302H315c-8.291,0-15-6.709-15-15c0-8.291,6.709-15,15-15h122c8.291,0,15,6.709,15,15
			C452,295.291,445.291,302,437,302z"/>
	</g>
</g>
<g>
</g>
<g>
</g>
<g>
</g>
<g>
</g>
<g>
</g>
<g>
</g>
<g>
</g>
<g>
</g>
<g>
</g>
<g>
</g>
<g>
</g>
<g>
</g>
<g>
</g>
<g>
</g>
<g>
</g>
</svg>
