<?xml version="1.0" encoding="iso-8859-1"?>
<!-- Generator: Adobe Illustrator 19.0.0, SVG Export Plug-In . SVG Version: 6.00 Build 0)  -->
<svg version="1.1" id="Capa_1" xmlns="http://www.w3.org/2000/svg" xmlns:xlink="http://www.w3.org/1999/xlink" x="0px" y="0px"
	 viewBox="0 0 512 512" style="enable-background:new 0 0 512 512;" xml:space="preserve">
<path d="M261.996,86.003c-5.52,0-10,4.48-10,10s4.48,10,10,10c5.52,0,10-4.48,10-10S267.516,86.003,261.996,86.003z"/>
<path d="M511.382,272.587c-1.36-8.797-5.024-17.042-10.69-23.969l-48.229-58.949c-0.032-0.039-0.068-0.073-0.101-0.111
	l-26.626-32.545c-5.719-6.998-14.184-11.012-23.223-11.012h-70.518V76.003c0-16.542-13.458-30-30-30H30c-16.542,0-30,13.458-30,30
	v319.996c0,5.522,4.477,10,10,10h49.999c0,33.084,26.916,59.999,59.999,59.999s59.999-26.916,59.999-59.999
	c34.856,0,131.56,0,171.998,0c0,33.084,26.916,59.999,59.999,59.999s59.999-26.916,59.999-59.999h10c16.542,0,30-13.458,30-30
	c-0.038-100.906,0.088-95.653-0.097-98.681C512.101,275.766,511.981,274.232,511.382,272.587z M488.357,266.001H371.995v-59.999
	h67.99l45.227,55.28C486.42,262.758,487.46,264.343,488.357,266.001z M119.998,445.998c-22.056,0-39.999-17.944-39.999-39.999
	c0-22.357,18.269-39.999,39.999-39.999c21.741,0,39.999,17.654,39.999,39.999C159.998,428.054,142.054,445.998,119.998,445.998z
	 M176.563,385.999C168.212,362.401,145.609,346,119.998,346c-25.622,0-48.233,16.414-56.569,39.999H20V76.003
	c0-5.514,4.486-10,10-10h271.996c5.514,0,10,4.486,10,10v309.996H176.563z M411.994,445.998c-22.056,0-39.999-17.944-39.999-39.999
	c0-22.357,18.269-39.999,39.999-39.999c21.741,0,39.999,17.654,39.999,39.999C451.994,428.054,434.05,445.998,411.994,445.998z
	 M481.993,385.999h-13.435C460.208,362.401,437.605,346,411.994,346c-25.622,0-48.233,16.414-56.569,39.999h-23.43V166.002h70.519
	c3.012,0,5.832,1.337,7.74,3.672l13.359,16.328h-61.618c-5.523,0-10,4.478-10,10v79.999c0,5.522,4.477,10,10,10h129.998v20h-30
	c-5.523,0-10,4.478-10,10c0,5.522,4.477,10,10,10h30v49.999C491.993,381.512,487.507,385.999,481.993,385.999z"/>
<path d="M119.998,385.999c-11.028,0-20,8.972-20,20s8.972,20,20,20s20-8.972,20-20S131.026,385.999,119.998,385.999z"/>
<path d="M411.994,385.999c-11.028,0-20,8.972-20,20s8.972,20,20,20s20-8.972,20-20S423.022,385.999,411.994,385.999z"/>
<path d="M170.998,225.291c-5.514,0-10-4.486-10-10s4.486-10,10-10c3.542,0,7.283,1.808,10.816,5.227
	c3.969,3.841,10.3,3.735,14.14-0.232c3.84-3.97,3.736-10.3-0.233-14.141c-5.075-4.911-10.153-7.688-14.724-9.205v-11.649
	c0-5.522-4.477-10-10-10s-10,4.478-10,10v11.72c-11.639,4.128-20,15.243-20,28.28c0,16.542,13.458,30,30,30c5.514,0,10,4.486,10,10
	c0,5.514-4.486,10-10,10c-4.273,0-8.885-2.687-12.986-7.564c-3.554-4.229-9.862-4.774-14.089-1.22
	c-4.228,3.554-4.773,9.862-1.219,14.089c5.346,6.36,11.632,10.791,18.294,13.025v11.67c0,5.522,4.477,10,10,10s10-4.478,10-10
	v-11.72c11.639-4.128,20-15.243,20-28.28C200.997,238.749,187.539,225.291,170.998,225.291z"/>
<path d="M221.997,86.003H89.999c-5.523,0-10,4.478-10,10s4.477,10,10,10h131.998c5.523,0,10-4.478,10-10
	S227.52,86.003,221.997,86.003z"/>
<g>
</g>
<g>
</g>
<g>
</g>
<g>
</g>
<g>
</g>
<g>
</g>
<g>
</g>
<g>
</g>
<g>
</g>
<g>
</g>
<g>
</g>
<g>
</g>
<g>
</g>
<g>
</g>
<g>
</g>
</svg>
