<?xml version="1.0" encoding="iso-8859-1"?>
<!-- Generator: Adobe Illustrator 19.0.0, SVG Export Plug-In . SVG Version: 6.00 Build 0)  -->
<svg version="1.1" id="Capa_1" xmlns="http://www.w3.org/2000/svg" xmlns:xlink="http://www.w3.org/1999/xlink" x="0px" y="0px"
	 viewBox="0 0 512.104 512.104" style="enable-background:new 0 0 512.104 512.104;" xml:space="preserve">
<g>
	<g>
		<g>
			<path d="M480.049,320.095h-42.667c-5.891,0-10.667,4.776-10.667,10.667v21.333h-32v-96.533
				c70.447-5.891,122.779-67.775,116.888-138.221C505.712,46.894,443.829-5.439,373.382,0.452
				c-66.359,5.549-117.379,61.052-117.333,127.643H53.382c-29.455,0-53.333,23.878-53.333,53.333v234.667
				c0,29.455,23.878,53.333,53.333,53.333h76.693c-5.896,16.661,2.83,34.946,19.491,40.842c3.671,1.299,7.549,1.918,11.443,1.824
				h179.52c8.336-0.119,16.296-3.487,22.187-9.387l55.04-54.613h8.96v10.667c0,5.891,4.776,10.667,10.667,10.667h42.667
				c17.673,0,32-14.327,32-32v-85.333C512.049,334.422,497.722,320.095,480.049,320.095z M384.049,21.429
				c58.91,0,106.667,47.756,106.667,106.667s-47.756,106.667-106.667,106.667s-106.667-47.756-106.667-106.667
				S325.138,21.429,384.049,21.429z M85.382,149.429h42.667v74.667c0,5.891-4.776,10.667-10.667,10.667H96.049
				c-5.891,0-10.667-4.776-10.667-10.667V149.429z M53.382,447.669v0.427c-17.673,0-32-14.327-32-32V181.429
				c0-17.673,14.327-32,32-32h10.667v74.667c0,17.673,14.327,32,32,32h21.333c17.673,0,32-14.327,32-32v-74.667h108.587
				c9.766,57.558,57.24,101.215,115.413,106.133v96.533h-32c-17.707,0-50.453,12.267-53.333,57.813l-36.267,21.333
				c-6.008,3.423-9.983,9.546-10.667,16.427H53.382z M426.715,426.762h-13.333c-2.835-0.016-5.56,1.097-7.573,3.093l-57.707,57.707
				c-2.013,1.997-4.738,3.11-7.573,3.093H160.902c-4.642,0.098-8.872-2.651-10.667-6.933c-1.224-3.38-0.662-7.15,1.493-10.027
				c1.969-2.627,5.038-4.201,8.32-4.267h93.44c10.038,6.759,21.82,10.464,33.92,10.667c19.552-0.858,37.9-9.685,50.773-24.427
				l-15.04-15.04c-20.587,20.587-40.853,23.787-60.267,9.387l41.28-24.747c3.239-1.921,5.226-5.407,5.227-9.173
				c0-40.853,28.8-42.667,32-42.667h85.333V426.762z M490.715,437.429c0,5.891-4.776,10.667-10.667,10.667h-32V341.429h32
				c5.891,0,10.667,4.776,10.667,10.667V437.429z"/>
			<rect x="64.049" y="277.429" width="21.333" height="21.333"/>
			<rect x="106.715" y="277.429" width="21.333" height="21.333"/>
			<rect x="64.049" y="320.095" width="85.333" height="21.333"/>
			<path d="M362.715,181.429h10.667v21.333h21.333v-21.333h10.667c11.782,0,21.333-9.551,21.333-21.333v-21.333
				c0-11.782-9.551-21.333-21.333-21.333h-42.667V96.095h42.667v10.667h21.333V96.095c0-11.782-9.551-21.333-21.333-21.333h-10.667
				V53.429h-21.333v21.333h-10.667c-11.782,0-21.333,9.551-21.333,21.333v21.333c0,11.782,9.551,21.333,21.333,21.333h42.667v21.333
				h-42.667v-10.667h-21.333v10.667C341.382,171.877,350.933,181.429,362.715,181.429z"/>
		</g>
	</g>
</g>
<g>
</g>
<g>
</g>
<g>
</g>
<g>
</g>
<g>
</g>
<g>
</g>
<g>
</g>
<g>
</g>
<g>
</g>
<g>
</g>
<g>
</g>
<g>
</g>
<g>
</g>
<g>
</g>
<g>
</g>
</svg>
